<svg width="26" height="26" viewBox="0 0 26 26" fill="none" xmlns="http://www.w3.org/2000/svg">
<path d="M3.25 0C2.38805 0 1.5614 0.34241 0.951904 0.951903C0.342411 1.5614 0 2.38805 0 3.25V22.75C0 23.612 0.342411 24.4386 0.951904 25.0481C1.5614 25.6576 2.38805 26 3.25 26H22.75C23.612 26 24.4386 25.6576 25.0481 25.0481C25.6576 24.4386 26 23.612 26 22.75V3.25C26 2.38805 25.6576 1.5614 25.0481 0.951903C24.4386 0.34241 23.612 0 22.75 0L3.25 0ZM13.8125 7.3125V16.7261L17.2997 13.2372C17.4523 13.0847 17.6592 12.999 17.875 12.999C18.0908 12.999 18.2977 13.0847 18.4503 13.2372C18.6028 13.3898 18.6885 13.5967 18.6885 13.8125C18.6885 14.0283 18.6028 14.2352 18.4503 14.3878L13.5753 19.2628C13.4998 19.3384 13.4101 19.3984 13.3114 19.4394C13.2127 19.4804 13.1069 19.5015 13 19.5015C12.8931 19.5015 12.7873 19.4804 12.6886 19.4394C12.5899 19.3984 12.5002 19.3384 12.4247 19.2628L7.54975 14.3878C7.39718 14.2352 7.31147 14.0283 7.31147 13.8125C7.31147 13.5967 7.39718 13.3898 7.54975 13.2372C7.70232 13.0847 7.90924 12.999 8.125 12.999C8.34076 12.999 8.54768 13.0847 8.70025 13.2372L12.1875 16.7261V7.3125C12.1875 7.09701 12.2731 6.89035 12.4255 6.73798C12.5778 6.5856 12.7845 6.5 13 6.5C13.2155 6.5 13.4222 6.5856 13.5745 6.73798C13.7269 6.89035 13.8125 7.09701 13.8125 7.3125Z" fill="#8E8E8E"/>
</svg>
