<svg width="22" height="19" viewBox="0 0 22 19" fill="none" xmlns="http://www.w3.org/2000/svg">
<path d="M3.83337 18V2.49033C3.83327 2.16071 3.94266 1.84039 4.14436 1.57968C4.34606 1.31897 4.62864 1.13264 4.94772 1.04995C5.2668 0.967259 5.60431 0.992896 5.90725 1.12283C6.21018 1.25277 6.46137 1.47965 6.62137 1.76783L15.212 17.2322C15.372 17.5204 15.6232 17.7472 15.9262 17.8772C16.2291 18.0071 16.5666 18.0327 16.8857 17.9501C17.2048 17.8674 17.4874 17.681 17.6891 17.4203C17.8908 17.1596 18.0001 16.8393 18 16.5097V1" stroke="black" stroke-width="2" stroke-linecap="round" stroke-linejoin="round"/>
<path d="M1 6.66699H20.8333" stroke="black" stroke-width="2" stroke-linecap="round" stroke-linejoin="round"/>
<path d="M1 12.333H20.8333" stroke="black" stroke-width="2" stroke-linecap="round" stroke-linejoin="round"/>
</svg>
