<svg width="37" height="39" viewBox="0 0 37 39" fill="none" xmlns="http://www.w3.org/2000/svg">
<path fill-rule="evenodd" clip-rule="evenodd" d="M18.5 0C15.4481 0.0107232 12.5002 1.24407 10.1889 3.47723C8.4175 5.18734 7.13406 7.41567 6.80337 9.65178C2.92762 10.6105 0 14.3935 0 18.9615C0 24.2681 3.94975 28.5019 8.74356 28.5019H17.3438V14.7873L12.3811 20.3503C12.164 20.5936 11.8695 20.7303 11.5625 20.7303C11.2555 20.7303 10.961 20.5936 10.7439 20.3503C10.5268 20.1071 10.4048 19.7771 10.4048 19.4331C10.4048 19.0891 10.5268 18.7591 10.7439 18.5159L17.6814 10.7426C17.7888 10.622 17.9164 10.5262 18.0568 10.4609C18.1973 10.3956 18.3479 10.362 18.5 10.362C18.6521 10.362 18.8027 10.3956 18.9432 10.4609C19.0836 10.5262 19.2112 10.622 19.3186 10.7426L26.2561 18.5159C26.4732 18.7591 26.5952 19.0891 26.5952 19.4331C26.5952 19.7771 26.4732 20.1071 26.2561 20.3503C26.039 20.5936 25.7445 20.7303 25.4375 20.7303C25.1305 20.7303 24.836 20.5936 24.6189 20.3503L19.6562 14.7873V28.5019H29.341C33.5359 28.5019 37 24.7966 37 20.1405C37 15.9015 34.1279 12.4476 30.4464 11.8646C29.8844 5.17957 24.7206 0 18.5 0ZM17.3438 37.5707V28.5019H19.6562V37.5707C19.6562 37.9143 19.5344 38.2438 19.3176 38.4868C19.1008 38.7297 18.8067 38.8662 18.5 38.8662C18.1933 38.8662 17.8992 38.7297 17.6824 38.4868C17.4656 38.2438 17.3438 37.9143 17.3438 37.5707Z" fill="#DFDFDF"/>
</svg>
