<svg width="18" height="20" viewBox="0 0 18 20" fill="none" xmlns="http://www.w3.org/2000/svg">
<path d="M13.03 11.3661C13.7691 11.3661 14.4191 11.7423 14.802 12.3136H8.99811C8.36983 12.3136 7.76728 12.5632 7.32303 13.0075C6.87877 13.4517 6.62918 14.0543 6.62918 14.6826V18.4728C6.62918 18.6254 6.6434 18.7761 6.67183 18.9201C3.88692 18.7438 1.80512 17.7356 0.484207 15.8812C0.169397 15.4398 0.0001336 14.9111 0 14.3689V13.4972C0 12.932 0.224524 12.3899 0.624179 11.9903C1.02383 11.5906 1.56588 11.3661 2.13108 11.3661H13.03ZM7.57675 0C8.19893 -9.27123e-09 8.81502 0.122548 9.38984 0.360646C9.96467 0.598745 10.487 0.947732 10.9269 1.38768C11.3669 1.82763 11.7158 2.34993 11.9539 2.92475C12.192 3.49957 12.3146 4.11566 12.3146 4.73784C12.3146 5.36002 12.192 5.97611 11.9539 6.55093C11.7158 7.12575 11.3669 7.64805 10.9269 8.088C10.487 8.52795 9.96467 8.87693 9.38984 9.11503C8.81502 9.35313 8.19893 9.47568 7.57675 9.47568C6.3202 9.47568 5.11511 8.97651 4.22659 8.088C3.33808 7.19948 2.83891 5.99439 2.83891 4.73784C2.83891 3.48129 3.33808 2.2762 4.22659 1.38768C5.11511 0.499164 6.3202 0 7.57675 0ZM7.57675 14.6826C7.57675 14.3056 7.7265 13.9441 7.99306 13.6775C8.25961 13.411 8.62114 13.2612 8.99811 13.2612H16.5786C16.9556 13.2612 17.3171 13.411 17.5837 13.6775C17.8503 13.9441 18 14.3056 18 14.6826V18.4728C18 18.8498 17.8503 19.2113 17.5837 19.4779C17.3171 19.7444 16.9556 19.8942 16.5786 19.8942H8.99811C8.62114 19.8942 8.25961 19.7444 7.99306 19.4779C7.7265 19.2113 7.57675 18.8498 7.57675 18.4728V14.6826ZM17.0524 15.1563C16.8011 15.1563 16.5601 15.0565 16.3824 14.8788C16.2047 14.7011 16.1049 14.4601 16.1049 14.2088H15.1573C15.1573 14.7114 15.357 15.1934 15.7124 15.5488C16.0678 15.9043 16.5498 16.1039 17.0524 16.1039V15.1563ZM17.0524 17.0515C16.5498 17.0515 16.0678 17.2512 15.7124 17.6066C15.357 17.962 15.1573 18.444 15.1573 18.9466H16.1049C16.1049 18.6953 16.2047 18.4543 16.3824 18.2766C16.5601 18.0989 16.8011 17.9991 17.0524 17.9991V17.0515ZM9.47189 14.2088C9.47189 14.4601 9.37206 14.7011 9.19435 14.8788C9.01665 15.0565 8.77563 15.1563 8.52432 15.1563V16.1039C9.02694 16.1039 9.50898 15.9043 9.86438 15.5488C10.2198 15.1934 10.4195 14.7114 10.4195 14.2088H9.47189ZM10.4195 18.9466C10.4195 18.444 10.2198 17.962 9.86438 17.6066C9.50898 17.2512 9.02694 17.0515 8.52432 17.0515V17.9991C8.77563 17.9991 9.01665 18.0989 9.19435 18.2766C9.37206 18.4543 9.47189 18.6953 9.47189 18.9466H10.4195ZM14.4466 16.5777C14.4466 16.1379 14.2719 15.7161 13.9609 15.4051C13.65 15.0942 13.2282 14.9195 12.7884 14.9195C12.3486 14.9195 11.9268 15.0942 11.6158 15.4051C11.3048 15.7161 11.1301 16.1379 11.1301 16.5777C11.1301 17.0175 11.3048 17.4393 11.6158 17.7503C11.9268 18.0612 12.3486 18.2359 12.7884 18.2359C13.2282 18.2359 13.65 18.0612 13.9609 17.7503C14.2719 17.4393 14.4466 17.0175 14.4466 16.5777Z" fill="black"/>
</svg>
