<svg width="18" height="28" viewBox="0 0 18 28" fill="none" xmlns="http://www.w3.org/2000/svg">
<path d="M9 0C10.1017 0 11.1582 0.437636 11.9372 1.21663C12.7162 1.99563 13.1538 3.05218 13.1538 4.15385C13.1538 5.25551 12.7162 6.31206 11.9372 7.09106C11.1582 7.87006 10.1017 8.30769 9 8.30769C7.89833 8.30769 6.84178 7.87006 6.06279 7.09106C5.28379 6.31206 4.84615 5.25551 4.84615 4.15385C4.84615 3.05218 5.28379 1.99563 6.06279 1.21663C6.84178 0.437636 7.89833 0 9 0ZM9 9.69231C11.2569 9.69231 13.32 10.1769 15.2308 11.1462C17.0862 12.1292 18 13.3062 18 14.6908V22.68C18 24.2308 16.8092 25.5323 14.3862 26.5708V23.5385C14.3862 22.2231 13.1954 21.2954 10.8138 20.7277C10.0385 20.5477 9.42923 20.4646 9 20.4646C7.79538 20.4646 6.64615 20.7 5.59385 21.1846C4.52769 21.6554 3.89077 22.2646 3.68308 22.9985C5.53846 23.7323 7.31077 24.1062 9 24.1062L10.3846 23.9677V27.6092L9 27.6923C7.14638 27.6949 5.31236 27.313 3.61385 26.5708C1.19077 25.5323 0 24.2308 0 22.68V14.6908C0 13.3062 0.913846 12.1292 2.76923 11.1462C4.68 10.1769 6.75692 9.69231 9 9.69231ZM9 12.4615C8.26555 12.4615 7.56119 12.7533 7.04186 13.2726C6.52253 13.792 6.23077 14.4963 6.23077 15.2308C6.23077 15.9652 6.52253 16.6696 7.04186 17.1889C7.56119 17.7082 8.26555 18 9 18C9.73445 18 10.4388 17.7082 10.9581 17.1889C11.4775 16.6696 11.7692 15.9652 11.7692 15.2308C11.7692 14.4963 11.4775 13.792 10.9581 13.2726C10.4388 12.7533 9.73445 12.4615 9 12.4615Z" fill="black"/>
</svg>
