<svg width="18" height="18" viewBox="0 0 18 18" fill="none" xmlns="http://www.w3.org/2000/svg">
<path d="M0 2.57143C0 1.88944 0.270917 1.23539 0.753154 0.753154C1.23539 0.270917 1.88944 0 2.57143 0H11.5714C12.2534 0 12.9075 0.270917 13.3897 0.753154C13.8719 1.23539 14.1429 1.88944 14.1429 2.57143V11.5714H18V14.1429C18 15.1658 17.5936 16.1469 16.8703 16.8703C16.1469 17.5936 15.1658 18 14.1429 18H3.85714C2.83416 18 1.85309 17.5936 1.12973 16.8703C0.406377 16.1469 0 15.1658 0 14.1429V2.57143ZM14.1429 16.7143C14.8248 16.7143 15.4789 16.4434 15.9611 15.9611C16.4434 15.4789 16.7143 14.8248 16.7143 14.1429V12.8571H14.1429V16.7143ZM4.5 3.85714C4.3295 3.85714 4.16599 3.92487 4.04543 4.04543C3.92487 4.16599 3.85714 4.3295 3.85714 4.5C3.85714 4.6705 3.92487 4.83401 4.04543 4.95457C4.16599 5.07513 4.3295 5.14286 4.5 5.14286H9.64286C9.81335 5.14286 9.97687 5.07513 10.0974 4.95457C10.218 4.83401 10.2857 4.6705 10.2857 4.5C10.2857 4.3295 10.218 4.16599 10.0974 4.04543C9.97687 3.92487 9.81335 3.85714 9.64286 3.85714H4.5ZM4.5 7.71429C4.3295 7.71429 4.16599 7.78201 4.04543 7.90257C3.92487 8.02313 3.85714 8.18665 3.85714 8.35714C3.85714 8.52764 3.92487 8.69115 4.04543 8.81171C4.16599 8.93227 4.3295 9 4.5 9H9.64286C9.81335 9 9.97687 8.93227 10.0974 8.81171C10.218 8.69115 10.2857 8.52764 10.2857 8.35714C10.2857 8.18665 10.218 8.02313 10.0974 7.90257C9.97687 7.78201 9.81335 7.71429 9.64286 7.71429H4.5ZM4.5 11.5714C4.3295 11.5714 4.16599 11.6392 4.04543 11.7597C3.92487 11.8803 3.85714 12.0438 3.85714 12.2143C3.85714 12.3848 3.92487 12.5483 4.04543 12.6689C4.16599 12.7894 4.3295 12.8571 4.5 12.8571H7.07143C7.24192 12.8571 7.40544 12.7894 7.526 12.6689C7.64656 12.5483 7.71429 12.3848 7.71429 12.2143C7.71429 12.0438 7.64656 11.8803 7.526 11.7597C7.40544 11.6392 7.24192 11.5714 7.07143 11.5714H4.5Z" fill="black"/>
</svg>
